%TF.GenerationSoftware,KiCad,Pcbnew,(6.0.2)*%
%TF.CreationDate,2022-04-03T01:31:02+08:00*%
%TF.ProjectId,BoHansen_DI,426f4861-6e73-4656-9e5f-44492e6b6963,rev?*%
%TF.SameCoordinates,Original*%
%TF.FileFunction,Copper,L1,Top*%
%TF.FilePolarity,Positive*%
%FSLAX46Y46*%
G04 Gerber Fmt 4.6, Leading zero omitted, Abs format (unit mm)*
G04 Created by KiCad (PCBNEW (6.0.2)) date 2022-04-03 01:31:02*
%MOMM*%
%LPD*%
G01*
G04 APERTURE LIST*
%TA.AperFunction,ComponentPad*%
%ADD10O,1.600000X1.600000*%
%TD*%
%TA.AperFunction,ComponentPad*%
%ADD11C,1.600000*%
%TD*%
%TA.AperFunction,ComponentPad*%
%ADD12R,1.600000X1.600000*%
%TD*%
%TA.AperFunction,ComponentPad*%
%ADD13O,1.700000X1.700000*%
%TD*%
%TA.AperFunction,ComponentPad*%
%ADD14R,1.700000X1.700000*%
%TD*%
%TA.AperFunction,ComponentPad*%
%ADD15O,2.200000X2.200000*%
%TD*%
%TA.AperFunction,ComponentPad*%
%ADD16R,2.200000X2.200000*%
%TD*%
%TA.AperFunction,ComponentPad*%
%ADD17C,1.400000*%
%TD*%
%TA.AperFunction,ComponentPad*%
%ADD18O,1.050000X1.500000*%
%TD*%
%TA.AperFunction,ComponentPad*%
%ADD19R,1.050000X1.500000*%
%TD*%
%TA.AperFunction,ComponentPad*%
%ADD20C,1.800000*%
%TD*%
%TA.AperFunction,ComponentPad*%
%ADD21R,1.800000X1.800000*%
%TD*%
%TA.AperFunction,Conductor*%
%ADD22C,0.635000*%
%TD*%
G04 APERTURE END LIST*
D10*
%TO.P,R4,2*%
%TO.N,Net-(C2-Pad2)*%
X140970000Y-96520000D03*
D11*
%TO.P,R4,1*%
%TO.N,Net-(C4-Pad1)*%
X133350000Y-96520000D03*
%TD*%
%TO.P,C2,2*%
%TO.N,Net-(C2-Pad2)*%
X144780000Y-91360000D03*
%TO.P,C2,1*%
%TO.N,Net-(C2-Pad1)*%
X144780000Y-86360000D03*
%TD*%
D10*
%TO.P,R11,2*%
%TO.N,Net-(D3-Pad2)*%
X165100000Y-88900000D03*
D11*
%TO.P,R11,1*%
%TO.N,Net-(R11-Pad1)*%
X172720000Y-88900000D03*
%TD*%
D10*
%TO.P,R1,2*%
%TO.N,Net-(C1-Pad2)*%
X142875000Y-64135000D03*
D11*
%TO.P,R1,1*%
%TO.N,Net-(C1-Pad1)*%
X142875000Y-71755000D03*
%TD*%
D10*
%TO.P,D2,2,A*%
%TO.N,Net-(D1-Pad2)*%
X140970000Y-91440000D03*
D12*
%TO.P,D2,1,K*%
%TO.N,GND1*%
X133350000Y-91440000D03*
%TD*%
D10*
%TO.P,R8,2*%
%TO.N,Net-(C3-Pad1)*%
X147320000Y-105410000D03*
D11*
%TO.P,R8,1*%
%TO.N,Net-(C5-Pad1)*%
X147320000Y-113030000D03*
%TD*%
D13*
%TO.P,SW4,2,B*%
%TO.N,GND1*%
X156205000Y-60960000D03*
D14*
%TO.P,SW4,1,A*%
%TO.N,Net-(J2-Pad1)*%
X153665000Y-60960000D03*
%TD*%
D13*
%TO.P,J2,2,Pin_2*%
%TO.N,GND1*%
X148585000Y-60960000D03*
D14*
%TO.P,J2,1,Pin_1*%
%TO.N,Net-(J2-Pad1)*%
X146045000Y-60960000D03*
%TD*%
D13*
%TO.P,J1,2,Pin_2*%
%TO.N,GND1*%
X140965000Y-60960000D03*
D14*
%TO.P,J1,1,Pin_1*%
%TO.N,Net-(C1-Pad2)*%
X138425000Y-60960000D03*
%TD*%
D11*
%TO.P,C1,2*%
%TO.N,Net-(C1-Pad2)*%
X137160000Y-65150000D03*
%TO.P,C1,1*%
%TO.N,Net-(C1-Pad1)*%
X137160000Y-70150000D03*
%TD*%
D13*
%TO.P,SW2,2,B*%
%TO.N,Net-(R2-Pad1)*%
X132080000Y-76200000D03*
D14*
%TO.P,SW2,1,A*%
%TO.N,Net-(C1-Pad1)*%
X132080000Y-73660000D03*
%TD*%
D10*
%TO.P,R5,2*%
%TO.N,Net-(C3-Pad1)*%
X143510000Y-101600000D03*
D11*
%TO.P,R5,1*%
%TO.N,Net-(C4-Pad1)*%
X135890000Y-101600000D03*
%TD*%
%TO.P,C3,2*%
%TO.N,GND1*%
X157480000Y-71430000D03*
D12*
%TO.P,C3,1*%
%TO.N,Net-(C3-Pad1)*%
X157480000Y-74930000D03*
%TD*%
D11*
%TO.P,C6,2*%
%TO.N,GND2*%
X160020000Y-61000000D03*
%TO.P,C6,1*%
%TO.N,GND1*%
X160020000Y-66000000D03*
%TD*%
D15*
%TO.P,D5,2,A*%
%TO.N,GND2*%
X175260000Y-73660000D03*
D16*
%TO.P,D5,1,K*%
%TO.N,GND1*%
X165100000Y-73660000D03*
%TD*%
D17*
%TO.P,T1,MH1,SCREEN*%
%TO.N,GND1*%
X153670000Y-110490000D03*
%TO.P,T1,B4,SECONDARY_1_2*%
X173990000Y-118110000D03*
%TO.P,T1,B3,SECONDARY_2_2*%
X168910000Y-118110000D03*
%TO.P,T1,B2,SECONDARY_1_1*%
%TO.N,Net-(C5-Pad2)*%
X161290000Y-118110000D03*
%TO.P,T1,B1,SECONDARY_2_1*%
X156210000Y-118110000D03*
%TO.P,T1,A4,PRIMARY_2_2*%
%TO.N,Net-(R11-Pad1)*%
X156210000Y-102870000D03*
%TO.P,T1,A3,PRIMARY_1_2*%
X161290000Y-102870000D03*
%TO.P,T1,A2,PRIMARY_2_1*%
%TO.N,Net-(R10-Pad1)*%
X168910000Y-102870000D03*
%TO.P,T1,A1,PRIMARY_1_1*%
X173990000Y-102870000D03*
%TD*%
D10*
%TO.P,R9,2*%
%TO.N,GND1*%
X167640000Y-83820000D03*
D11*
%TO.P,R9,1*%
%TO.N,GND2*%
X175260000Y-83820000D03*
%TD*%
D13*
%TO.P,SW3,4,4*%
%TO.N,Net-(J3-Pad2)*%
X167000000Y-66040000D03*
%TO.P,SW3,3,3*%
%TO.N,Net-(R10-Pad1)*%
X167000000Y-68580000D03*
%TO.P,SW3,2,2*%
%TO.N,Net-(J3-Pad1)*%
X164460000Y-66040000D03*
D14*
%TO.P,SW3,1,1*%
%TO.N,Net-(R11-Pad1)*%
X164460000Y-68580000D03*
%TD*%
D11*
%TO.P,C5,2*%
%TO.N,Net-(C5-Pad2)*%
X148050000Y-118110000D03*
D12*
%TO.P,C5,1*%
%TO.N,Net-(C5-Pad1)*%
X146050000Y-118110000D03*
%TD*%
D10*
%TO.P,R10,2*%
%TO.N,Net-(D3-Pad2)*%
X165100000Y-93980000D03*
D11*
%TO.P,R10,1*%
%TO.N,Net-(R10-Pad1)*%
X172720000Y-93980000D03*
%TD*%
%TO.P,C4,2*%
%TO.N,GND1*%
X132620000Y-109220000D03*
D12*
%TO.P,C4,1*%
%TO.N,Net-(C4-Pad1)*%
X134620000Y-109220000D03*
%TD*%
D10*
%TO.P,R6,2*%
%TO.N,GND1*%
X132080000Y-114300000D03*
D11*
%TO.P,R6,1*%
%TO.N,Net-(C4-Pad1)*%
X139700000Y-114300000D03*
%TD*%
D10*
%TO.P,R12,2*%
%TO.N,Net-(J2-Pad1)*%
X149860000Y-78740000D03*
D11*
%TO.P,R12,1*%
%TO.N,Net-(C5-Pad2)*%
X149860000Y-86360000D03*
%TD*%
D15*
%TO.P,D4,2,A*%
%TO.N,GND1*%
X165100000Y-78740000D03*
D16*
%TO.P,D4,1,K*%
%TO.N,GND2*%
X175260000Y-78740000D03*
%TD*%
D18*
%TO.P,Q2,3,E*%
%TO.N,Net-(C5-Pad1)*%
X142240000Y-124460000D03*
%TO.P,Q2,2,B*%
%TO.N,Net-(Q1-Pad3)*%
X140970000Y-124460000D03*
D19*
%TO.P,Q2,1,C*%
%TO.N,GND1*%
X139700000Y-124460000D03*
%TD*%
D20*
%TO.P,D3,2,A*%
%TO.N,Net-(D3-Pad2)*%
X160020000Y-83820000D03*
D21*
%TO.P,D3,1,K*%
%TO.N,Net-(C3-Pad1)*%
X157480000Y-83820000D03*
%TD*%
D10*
%TO.P,R3,2*%
%TO.N,Net-(C1-Pad1)*%
X133350000Y-81280000D03*
D11*
%TO.P,R3,1*%
%TO.N,Net-(C2-Pad1)*%
X140970000Y-81280000D03*
%TD*%
D10*
%TO.P,D1,2,A*%
%TO.N,Net-(D1-Pad2)*%
X140970000Y-86360000D03*
D12*
%TO.P,D1,1,K*%
%TO.N,Net-(C2-Pad1)*%
X133350000Y-86360000D03*
%TD*%
D10*
%TO.P,R2,2*%
%TO.N,GND1*%
X143510000Y-76200000D03*
D11*
%TO.P,R2,1*%
%TO.N,Net-(R2-Pad1)*%
X135890000Y-76200000D03*
%TD*%
D13*
%TO.P,SW1,2,B*%
%TO.N,Net-(C1-Pad1)*%
X132080000Y-67610000D03*
D14*
%TO.P,SW1,1,A*%
%TO.N,Net-(C1-Pad2)*%
X132080000Y-65070000D03*
%TD*%
D13*
%TO.P,J3,4,Pin_4*%
%TO.N,GND2*%
X172095000Y-60960000D03*
%TO.P,J3,3,Pin_3*%
X169555000Y-60960000D03*
%TO.P,J3,2,Pin_2*%
%TO.N,Net-(J3-Pad2)*%
X167015000Y-60960000D03*
D14*
%TO.P,J3,1,Pin_1*%
%TO.N,Net-(J3-Pad1)*%
X164475000Y-60960000D03*
%TD*%
D10*
%TO.P,R7,2*%
%TO.N,GND1*%
X132080000Y-119380000D03*
D11*
%TO.P,R7,1*%
%TO.N,Net-(Q1-Pad3)*%
X139700000Y-119380000D03*
%TD*%
D18*
%TO.P,Q1,3,E*%
%TO.N,Net-(Q1-Pad3)*%
X139700000Y-106680000D03*
%TO.P,Q1,2,B*%
%TO.N,Net-(C2-Pad2)*%
X140970000Y-106680000D03*
D19*
%TO.P,Q1,1,C*%
%TO.N,Net-(C3-Pad1)*%
X142240000Y-106680000D03*
%TD*%
D22*
%TO.N,Net-(C1-Pad1)*%
X141270000Y-70150000D02*
X142875000Y-71755000D01*
X137160000Y-70150000D02*
X141270000Y-70150000D01*
%TO.N,Net-(C1-Pad2)*%
X137160000Y-65150000D02*
X141860000Y-65150000D01*
X141860000Y-65150000D02*
X142875000Y-64135000D01*
%TO.N,Net-(R10-Pad1)*%
X167000000Y-68580000D02*
X170180000Y-71760000D01*
X173990000Y-102870000D02*
X168910000Y-102870000D01*
X172720000Y-80010000D02*
X172720000Y-83820000D01*
X173990000Y-102870000D02*
X173990000Y-100330000D01*
X172720000Y-92710000D02*
X172720000Y-93980000D01*
X172720000Y-83820000D02*
X175260000Y-86360000D01*
X175260000Y-86360000D02*
X175260000Y-90170000D01*
X170180000Y-77470000D02*
X172720000Y-80010000D01*
X173990000Y-100330000D02*
X172720000Y-99060000D01*
X170180000Y-71760000D02*
X170180000Y-77470000D01*
X175260000Y-90170000D02*
X172720000Y-92710000D01*
X172720000Y-99060000D02*
X172720000Y-93980000D01*
%TO.N,Net-(J2-Pad1)*%
X146045000Y-73655000D02*
X146045000Y-60960000D01*
X146045000Y-60960000D02*
X146045000Y-62230000D01*
X149860000Y-77470000D02*
X146045000Y-73655000D01*
X151760000Y-64135000D02*
X153665000Y-62230000D01*
X147950000Y-64135000D02*
X151760000Y-64135000D01*
X146045000Y-62230000D02*
X147950000Y-64135000D01*
X153665000Y-62230000D02*
X153665000Y-60960000D01*
X149860000Y-78740000D02*
X149860000Y-77470000D01*
%TO.N,GND1*%
X147320000Y-81280000D02*
X151765000Y-81280000D01*
X151765000Y-81280000D02*
X154305000Y-78740000D01*
X155575000Y-70485000D02*
X156535000Y-70485000D01*
X154305000Y-71755000D02*
X155575000Y-70485000D01*
X154305000Y-78740000D02*
X154305000Y-71755000D01*
X156535000Y-70485000D02*
X157480000Y-71430000D01*
X143510000Y-76200000D02*
X143510000Y-77470000D01*
X143510000Y-77470000D02*
X147320000Y-81280000D01*
%TO.N,Net-(D3-Pad2)*%
X162560000Y-83820000D02*
X165100000Y-86360000D01*
X165100000Y-86360000D02*
X165100000Y-88900000D01*
X165100000Y-93980000D02*
X165100000Y-88900000D01*
X160020000Y-83820000D02*
X162560000Y-83820000D01*
%TO.N,Net-(C1-Pad1)*%
X138430000Y-74930000D02*
X138430000Y-77470000D01*
X132080000Y-73660000D02*
X137160000Y-73660000D01*
X132080000Y-67610000D02*
X132080000Y-73660000D01*
X132080000Y-69215000D02*
X133015000Y-70150000D01*
X132080000Y-67610000D02*
X132080000Y-69215000D01*
X133015000Y-70150000D02*
X137160000Y-70150000D01*
X137160000Y-78740000D02*
X134620000Y-78740000D01*
X138430000Y-77470000D02*
X137160000Y-78740000D01*
X133350000Y-80010000D02*
X133350000Y-81280000D01*
X134620000Y-78740000D02*
X133350000Y-80010000D01*
X137160000Y-73660000D02*
X138430000Y-74930000D01*
%TO.N,Net-(C1-Pad2)*%
X132080000Y-65070000D02*
X137080000Y-65070000D01*
X137080000Y-65070000D02*
X137160000Y-65150000D01*
X138430000Y-63880000D02*
X137160000Y-65150000D01*
X138430000Y-62865000D02*
X138430000Y-63880000D01*
X138425000Y-62860000D02*
X138430000Y-62865000D01*
X138425000Y-60960000D02*
X138425000Y-62860000D01*
%TO.N,Net-(R2-Pad1)*%
X132080000Y-76200000D02*
X135890000Y-76200000D01*
%TO.N,Net-(C2-Pad1)*%
X133350000Y-85090000D02*
X133350000Y-86360000D01*
X144780000Y-83820000D02*
X144780000Y-86360000D01*
X142240000Y-81280000D02*
X144780000Y-83820000D01*
X140970000Y-81280000D02*
X142240000Y-81280000D01*
X140970000Y-81280000D02*
X137160000Y-81280000D01*
X137160000Y-81280000D02*
X133350000Y-85090000D01*
%TO.N,Net-(C4-Pad1)*%
X135890000Y-101600000D02*
X135890000Y-104140000D01*
X137160000Y-114300000D02*
X134620000Y-111760000D01*
X133350000Y-96520000D02*
X133350000Y-99060000D01*
X139700000Y-114300000D02*
X137160000Y-114300000D01*
X134620000Y-111760000D02*
X134620000Y-109220000D01*
X135890000Y-104140000D02*
X134620000Y-105410000D01*
X133350000Y-99060000D02*
X135890000Y-101600000D01*
X134620000Y-105410000D02*
X134620000Y-109220000D01*
%TO.N,Net-(C2-Pad2)*%
X142240000Y-96520000D02*
X140970000Y-96520000D01*
X140970000Y-106680000D02*
X140970000Y-96520000D01*
X144780000Y-93980000D02*
X142240000Y-96520000D01*
X144780000Y-91360000D02*
X144780000Y-93980000D01*
%TO.N,Net-(C3-Pad1)*%
X157480000Y-83820000D02*
X157480000Y-74930000D01*
X147320000Y-85090000D02*
X147320000Y-94615000D01*
X147320000Y-94615000D02*
X143510000Y-98425000D01*
X148590000Y-83820000D02*
X147320000Y-85090000D01*
X147320000Y-107950000D02*
X147320000Y-105410000D01*
X142240000Y-102870000D02*
X143510000Y-101600000D01*
X143510000Y-109220000D02*
X146050000Y-109220000D01*
X142240000Y-106680000D02*
X142240000Y-102870000D01*
X146050000Y-109220000D02*
X147320000Y-107950000D01*
X142240000Y-107950000D02*
X143510000Y-109220000D01*
X157480000Y-83820000D02*
X148590000Y-83820000D01*
X143510000Y-98425000D02*
X143510000Y-101600000D01*
X142240000Y-106680000D02*
X142240000Y-107950000D01*
%TO.N,Net-(Q1-Pad3)*%
X141605000Y-112395000D02*
X141605000Y-117475000D01*
X139700000Y-121920000D02*
X139700000Y-119380000D01*
X139700000Y-106680000D02*
X139700000Y-110490000D01*
X140970000Y-123190000D02*
X139700000Y-121920000D01*
X141605000Y-117475000D02*
X139700000Y-119380000D01*
X139700000Y-110490000D02*
X141605000Y-112395000D01*
X140970000Y-124460000D02*
X140970000Y-123190000D01*
%TO.N,Net-(C5-Pad1)*%
X142240000Y-124460000D02*
X143510000Y-124460000D01*
X143510000Y-124460000D02*
X146050000Y-121920000D01*
X147320000Y-114300000D02*
X147320000Y-113030000D01*
X146050000Y-118110000D02*
X146050000Y-115570000D01*
X146050000Y-115570000D02*
X147320000Y-114300000D01*
X146050000Y-121920000D02*
X146050000Y-118110000D01*
%TO.N,Net-(D1-Pad2)*%
X140970000Y-86360000D02*
X140970000Y-91440000D01*
%TO.N,Net-(J3-Pad2)*%
X167000000Y-60975000D02*
X167015000Y-60960000D01*
X167000000Y-66040000D02*
X167000000Y-60975000D01*
%TO.N,Net-(C5-Pad2)*%
X148050000Y-118110000D02*
X148050000Y-116110000D01*
X161290000Y-118110000D02*
X156210000Y-118110000D01*
X148050000Y-116110000D02*
X149860000Y-114300000D01*
X156210000Y-118110000D02*
X148050000Y-118110000D01*
X149860000Y-114300000D02*
X149860000Y-86360000D01*
%TO.N,Net-(R11-Pad1)*%
X172720000Y-87630000D02*
X172720000Y-88900000D01*
X164460000Y-69210000D02*
X167640000Y-72390000D01*
X167640000Y-78740000D02*
X170180000Y-81280000D01*
X167640000Y-72390000D02*
X167640000Y-78740000D01*
X166370000Y-102870000D02*
X170180000Y-99060000D01*
X164460000Y-68580000D02*
X164460000Y-69210000D01*
X170180000Y-91440000D02*
X172720000Y-88900000D01*
X161290000Y-102870000D02*
X166370000Y-102870000D01*
X170180000Y-81280000D02*
X170180000Y-85090000D01*
X156210000Y-102870000D02*
X161290000Y-102870000D01*
X170180000Y-85090000D02*
X172720000Y-87630000D01*
X170180000Y-99060000D02*
X170180000Y-91440000D01*
%TO.N,Net-(J3-Pad1)*%
X164460000Y-66040000D02*
X164460000Y-60975000D01*
X164460000Y-60975000D02*
X164475000Y-60960000D01*
%TD*%
%TA.AperFunction,Conductor*%
%TO.N,GND1*%
G36*
X157422121Y-55900002D02*
G01*
X157468614Y-55953658D01*
X157480000Y-56006000D01*
X157480000Y-62865000D01*
X159385000Y-64770000D01*
X160602810Y-64770000D01*
X160670931Y-64790002D01*
X160691905Y-64806905D01*
X161888095Y-66003095D01*
X161922121Y-66065407D01*
X161925000Y-66092190D01*
X161925000Y-69215000D01*
X165698095Y-72988095D01*
X165732121Y-73050407D01*
X165735000Y-73077190D01*
X165735000Y-79375000D01*
X168873095Y-82513095D01*
X168907121Y-82575407D01*
X168910000Y-82602190D01*
X168910000Y-97737810D01*
X168889998Y-97805931D01*
X168873095Y-97826905D01*
X165771905Y-100928095D01*
X165709593Y-100962121D01*
X165682810Y-100965000D01*
X154940000Y-100965000D01*
X153670000Y-102235000D01*
X153670000Y-106045000D01*
X154940000Y-107315000D01*
X166317810Y-107315000D01*
X166385931Y-107335002D01*
X166406905Y-107351905D01*
X168910000Y-109855000D01*
X176477810Y-109855000D01*
X176545931Y-109875002D01*
X176566905Y-109891905D01*
X177763095Y-111088095D01*
X177797121Y-111150407D01*
X177800000Y-111177190D01*
X177800000Y-122502810D01*
X177779998Y-122570931D01*
X177763095Y-122591905D01*
X176566905Y-123788095D01*
X176504593Y-123822121D01*
X176477810Y-123825000D01*
X170180000Y-123825000D01*
X165180258Y-129449710D01*
X165120051Y-129487335D01*
X165086084Y-129492000D01*
X137799190Y-129492000D01*
X137731069Y-129471998D01*
X137710095Y-129455095D01*
X136561905Y-128306905D01*
X136527879Y-128244593D01*
X136525000Y-128217810D01*
X136525000Y-125095000D01*
X135255000Y-123825000D01*
X131497190Y-123825000D01*
X131429069Y-123804998D01*
X131408095Y-123788095D01*
X130544905Y-122924905D01*
X130510879Y-122862593D01*
X130508000Y-122835810D01*
X130508000Y-89026000D01*
X130528002Y-88957879D01*
X130581658Y-88911386D01*
X130634000Y-88900000D01*
X132662810Y-88900000D01*
X132730931Y-88920002D01*
X132751905Y-88936905D01*
X133948095Y-90133095D01*
X133982121Y-90195407D01*
X133985000Y-90222190D01*
X133985000Y-92657810D01*
X133964998Y-92725931D01*
X133948095Y-92746905D01*
X131445000Y-95250000D01*
X131445000Y-100330000D01*
X133313095Y-102198095D01*
X133347121Y-102260407D01*
X133350000Y-102287190D01*
X133350000Y-108202163D01*
X133341982Y-108246392D01*
X133322444Y-108298511D01*
X133318255Y-108309684D01*
X133311500Y-108371866D01*
X133311500Y-110068134D01*
X133318255Y-110130316D01*
X133321027Y-110137709D01*
X133321027Y-110137711D01*
X133341982Y-110193608D01*
X133350000Y-110237837D01*
X133350000Y-111707810D01*
X133329998Y-111775931D01*
X133313095Y-111796905D01*
X132715000Y-112395000D01*
X132715000Y-120650000D01*
X133985000Y-121920000D01*
X138377810Y-121920000D01*
X138445931Y-121940002D01*
X138466905Y-121956905D01*
X139663095Y-123153095D01*
X139697121Y-123215407D01*
X139700000Y-123242190D01*
X139700000Y-125730000D01*
X140335000Y-126365000D01*
X146050000Y-126365000D01*
X149823095Y-122591905D01*
X149885407Y-122557879D01*
X149912190Y-122555000D01*
X163830000Y-122555000D01*
X165100000Y-121285000D01*
X165100000Y-113030000D01*
X163830000Y-111760000D01*
X153722190Y-111760000D01*
X153654069Y-111739998D01*
X153633095Y-111723095D01*
X151801905Y-109891905D01*
X151767879Y-109829593D01*
X151765000Y-109802810D01*
X151765000Y-99755559D01*
X151785002Y-99687438D01*
X151812288Y-99657170D01*
X154146250Y-97790000D01*
X154905487Y-97182611D01*
X154971175Y-97155675D01*
X154984198Y-97155000D01*
X165100000Y-97155000D01*
X167005000Y-95250000D01*
X167005000Y-85725000D01*
X160056905Y-78776905D01*
X160022879Y-78714593D01*
X160020000Y-78687810D01*
X160020000Y-73025000D01*
X158750000Y-71755000D01*
X156210000Y-71755000D01*
X154940000Y-73025000D01*
X154940000Y-74804000D01*
X154919998Y-74872121D01*
X154866342Y-74918614D01*
X154814000Y-74930000D01*
X153722190Y-74930000D01*
X153654069Y-74909998D01*
X153633095Y-74893095D01*
X152436905Y-73696905D01*
X152402879Y-73634593D01*
X152400000Y-73607810D01*
X152400000Y-66727190D01*
X152420002Y-66659069D01*
X152436905Y-66638095D01*
X155575000Y-63500000D01*
X155575000Y-59690000D01*
X154305000Y-58420000D01*
X152400000Y-58420000D01*
X151130000Y-59690000D01*
X151130000Y-62104000D01*
X151109998Y-62172121D01*
X151056342Y-62218614D01*
X151004000Y-62230000D01*
X148081000Y-62230000D01*
X148012879Y-62209998D01*
X147966386Y-62156342D01*
X147955000Y-62104000D01*
X147955000Y-59690000D01*
X146685000Y-58420000D01*
X144780000Y-58420000D01*
X143510000Y-59690000D01*
X143510000Y-62104000D01*
X143489998Y-62172121D01*
X143436342Y-62218614D01*
X143384000Y-62230000D01*
X140461000Y-62230000D01*
X140392879Y-62209998D01*
X140346386Y-62156342D01*
X140335000Y-62104000D01*
X140335000Y-57202190D01*
X140355002Y-57134069D01*
X140371905Y-57113095D01*
X141568095Y-55916905D01*
X141630407Y-55882879D01*
X141657190Y-55880000D01*
X157354000Y-55880000D01*
X157422121Y-55900002D01*
G37*
%TD.AperFunction*%
%TD*%
%TA.AperFunction,Conductor*%
%TO.N,GND2*%
G36*
X173932121Y-55900002D02*
G01*
X173978614Y-55953658D01*
X173990000Y-56006000D01*
X173990000Y-59055000D01*
X175895000Y-60960000D01*
X178944000Y-60960000D01*
X179012121Y-60980002D01*
X179058614Y-61033658D01*
X179070000Y-61086000D01*
X179070000Y-85599000D01*
X179049998Y-85667121D01*
X178996342Y-85713614D01*
X178944000Y-85725000D01*
X176582190Y-85725000D01*
X176514069Y-85704998D01*
X176493095Y-85688095D01*
X174661905Y-83856905D01*
X174627879Y-83794593D01*
X174625000Y-83767810D01*
X174625000Y-76200000D01*
X172756905Y-74331905D01*
X172722879Y-74269593D01*
X172720000Y-74242810D01*
X172720000Y-69850000D01*
X168946905Y-66076905D01*
X168912879Y-66014593D01*
X168910000Y-65987810D01*
X168910000Y-59690000D01*
X167640000Y-58420000D01*
X163195000Y-58420000D01*
X161925000Y-59690000D01*
X161925000Y-60907810D01*
X161904998Y-60975931D01*
X161888095Y-60996905D01*
X160691905Y-62193095D01*
X160629593Y-62227121D01*
X160602810Y-62230000D01*
X158876000Y-62230000D01*
X158807879Y-62209998D01*
X158761386Y-62156342D01*
X158750000Y-62104000D01*
X158750000Y-57202190D01*
X158770002Y-57134069D01*
X158786905Y-57113095D01*
X159983095Y-55916905D01*
X160045407Y-55882879D01*
X160072190Y-55880000D01*
X173864000Y-55880000D01*
X173932121Y-55900002D01*
G37*
%TD.AperFunction*%
%TD*%
M02*
