M48
; DRILL file {KiCad (6.0.2)} date Sun Apr  3 01:31:54 2022
; FORMAT={-:-/ absolute / inch / decimal}
; #@! TF.CreationDate,2022-04-03T01:31:54+08:00
; #@! TF.GenerationSoftware,Kicad,Pcbnew,(6.0.2)
; #@! TF.FileFunction,Plated,1,2,PTH
FMAT,2
INCH
; #@! TA.AperFunction,Plated,PTH,ComponentDrill
T1C0.0295
; #@! TA.AperFunction,Plated,PTH,ComponentDrill
T2C0.0315
; #@! TA.AperFunction,Plated,PTH,ComponentDrill
T3C0.0354
; #@! TA.AperFunction,Plated,PTH,ComponentDrill
T4C0.0394
; #@! TA.AperFunction,Plated,PTH,ComponentDrill
T5C0.0433
%
G90
G05
T1
X5.5Y-4.2
X5.5Y-4.9
X5.55Y-4.2
X5.55Y-4.9
X5.6Y-4.2
X5.6Y-4.9
T2
X5.2Y-4.5
X5.2Y-4.7
X5.2213Y-4.3
X5.25Y-3.2
X5.25Y-3.4
X5.25Y-3.6
X5.25Y-3.8
X5.3Y-4.3
X5.35Y-3.0
X5.35Y-4.0
X5.4Y-2.565
X5.4Y-2.7618
X5.5Y-4.5
X5.5Y-4.7
X5.55Y-3.2
X5.55Y-3.4
X5.55Y-3.6
X5.55Y-3.8
X5.625Y-2.525
X5.625Y-2.825
X5.65Y-3.0
X5.65Y-4.0
X5.7Y-3.4
X5.7Y-3.5969
X5.75Y-4.65
X5.8Y-4.15
X5.8Y-4.45
X5.8287Y-4.65
X5.9Y-3.1
X5.9Y-3.4
X6.2Y-2.8122
X6.2Y-2.95
X6.3Y-2.4016
X6.3Y-2.5984
X6.5Y-3.5
X6.5Y-3.7
X6.6Y-3.3
X6.8Y-3.5
X6.8Y-3.7
X6.9Y-3.3
T3
X6.05Y-4.35
X6.15Y-4.05
X6.15Y-4.65
X6.2Y-3.3
X6.3Y-3.3
X6.35Y-4.05
X6.35Y-4.65
X6.65Y-4.05
X6.65Y-4.65
X6.85Y-4.05
X6.85Y-4.65
T4
X5.2Y-2.5618
X5.2Y-2.6618
X5.2Y-2.9
X5.2Y-3.0
X5.4498Y-2.4
X5.5498Y-2.4
X5.7498Y-2.4
X5.8498Y-2.4
X6.0498Y-2.4
X6.1498Y-2.4
X6.4748Y-2.6
X6.4748Y-2.7
X6.4754Y-2.4
X6.5748Y-2.6
X6.5748Y-2.7
X6.5754Y-2.4
X6.6754Y-2.4
X6.7754Y-2.4
T5
X6.5Y-2.9
X6.5Y-3.1
X6.9Y-2.9
X6.9Y-3.1
T0
M30
