%TF.GenerationSoftware,KiCad,Pcbnew,(6.0.2)*%
%TF.CreationDate,2022-04-03T01:31:02+08:00*%
%TF.ProjectId,BoHansen_DI,426f4861-6e73-4656-9e5f-44492e6b6963,rev?*%
%TF.SameCoordinates,Original*%
%TF.FileFunction,Soldermask,Top*%
%TF.FilePolarity,Negative*%
%FSLAX46Y46*%
G04 Gerber Fmt 4.6, Leading zero omitted, Abs format (unit mm)*
G04 Created by KiCad (PCBNEW (6.0.2)) date 2022-04-03 01:31:02*
%MOMM*%
%LPD*%
G01*
G04 APERTURE LIST*
%ADD10O,1.600000X1.600000*%
%ADD11C,1.600000*%
%ADD12R,1.600000X1.600000*%
%ADD13O,1.700000X1.700000*%
%ADD14R,1.700000X1.700000*%
%ADD15C,2.200000*%
%ADD16O,2.200000X2.200000*%
%ADD17R,2.200000X2.200000*%
%ADD18C,1.400000*%
%ADD19O,1.050000X1.500000*%
%ADD20R,1.050000X1.500000*%
%ADD21C,1.800000*%
%ADD22R,1.800000X1.800000*%
G04 APERTURE END LIST*
D10*
%TO.C,R4*%
X140970000Y-96520000D03*
D11*
X133350000Y-96520000D03*
%TD*%
%TO.C,C2*%
X144780000Y-91360000D03*
X144780000Y-86360000D03*
%TD*%
D10*
%TO.C,R11*%
X165100000Y-88900000D03*
D11*
X172720000Y-88900000D03*
%TD*%
D10*
%TO.C,R1*%
X142875000Y-64135000D03*
D11*
X142875000Y-71755000D03*
%TD*%
D10*
%TO.C,D2*%
X140970000Y-91440000D03*
D12*
X133350000Y-91440000D03*
%TD*%
D10*
%TO.C,R8*%
X147320000Y-105410000D03*
D11*
X147320000Y-113030000D03*
%TD*%
D13*
%TO.C,SW4*%
X156205000Y-60960000D03*
D14*
X153665000Y-60960000D03*
%TD*%
D15*
%TO.C,H2*%
X133000000Y-127000000D03*
%TD*%
D13*
%TO.C,J2*%
X148585000Y-60960000D03*
D14*
X146045000Y-60960000D03*
%TD*%
D13*
%TO.C,J1*%
X140965000Y-60960000D03*
D14*
X138425000Y-60960000D03*
%TD*%
D11*
%TO.C,C1*%
X137160000Y-65150000D03*
X137160000Y-70150000D03*
%TD*%
D13*
%TO.C,SW2*%
X132080000Y-76200000D03*
D14*
X132080000Y-73660000D03*
%TD*%
D10*
%TO.C,R5*%
X143510000Y-101600000D03*
D11*
X135890000Y-101600000D03*
%TD*%
%TO.C,C3*%
X157480000Y-71430000D03*
D12*
X157480000Y-74930000D03*
%TD*%
D11*
%TO.C,C6*%
X160020000Y-61000000D03*
X160020000Y-66000000D03*
%TD*%
D16*
%TO.C,D5*%
X175260000Y-73660000D03*
D17*
X165100000Y-73660000D03*
%TD*%
D18*
%TO.C,T1*%
X153670000Y-110490000D03*
X173990000Y-118110000D03*
X168910000Y-118110000D03*
X161290000Y-118110000D03*
X156210000Y-118110000D03*
X156210000Y-102870000D03*
X161290000Y-102870000D03*
X168910000Y-102870000D03*
X173990000Y-102870000D03*
%TD*%
D15*
%TO.C,H3*%
X177000000Y-58000000D03*
%TD*%
D10*
%TO.C,R9*%
X167640000Y-83820000D03*
D11*
X175260000Y-83820000D03*
%TD*%
D15*
%TO.C,H1*%
X133000000Y-58000000D03*
%TD*%
D13*
%TO.C,SW3*%
X167000000Y-66040000D03*
X167000000Y-68580000D03*
X164460000Y-66040000D03*
D14*
X164460000Y-68580000D03*
%TD*%
D11*
%TO.C,C5*%
X148050000Y-118110000D03*
D12*
X146050000Y-118110000D03*
%TD*%
D10*
%TO.C,R10*%
X165100000Y-93980000D03*
D11*
X172720000Y-93980000D03*
%TD*%
%TO.C,C4*%
X132620000Y-109220000D03*
D12*
X134620000Y-109220000D03*
%TD*%
D10*
%TO.C,R6*%
X132080000Y-114300000D03*
D11*
X139700000Y-114300000D03*
%TD*%
D10*
%TO.C,R12*%
X149860000Y-78740000D03*
D11*
X149860000Y-86360000D03*
%TD*%
D16*
%TO.C,D4*%
X165100000Y-78740000D03*
D17*
X175260000Y-78740000D03*
%TD*%
D19*
%TO.C,Q2*%
X142240000Y-124460000D03*
X140970000Y-124460000D03*
D20*
X139700000Y-124460000D03*
%TD*%
D21*
%TO.C,D3*%
X160020000Y-83820000D03*
D22*
X157480000Y-83820000D03*
%TD*%
D10*
%TO.C,R3*%
X133350000Y-81280000D03*
D11*
X140970000Y-81280000D03*
%TD*%
D10*
%TO.C,D1*%
X140970000Y-86360000D03*
D12*
X133350000Y-86360000D03*
%TD*%
D10*
%TO.C,R2*%
X143510000Y-76200000D03*
D11*
X135890000Y-76200000D03*
%TD*%
D13*
%TO.C,SW1*%
X132080000Y-67610000D03*
D14*
X132080000Y-65070000D03*
%TD*%
D13*
%TO.C,J3*%
X172095000Y-60960000D03*
X169555000Y-60960000D03*
X167015000Y-60960000D03*
D14*
X164475000Y-60960000D03*
%TD*%
D10*
%TO.C,R7*%
X132080000Y-119380000D03*
D11*
X139700000Y-119380000D03*
%TD*%
D19*
%TO.C,Q1*%
X139700000Y-106680000D03*
X140970000Y-106680000D03*
D20*
X142240000Y-106680000D03*
%TD*%
D15*
%TO.C,H4*%
X177000000Y-127000000D03*
%TD*%
M02*
